<svg width="16" height="16" viewBox="0 0 120 120" fill="none" xmlns="http://www.w3.org/2000/svg">
<rect width="120" height="120" rx="12" fill="url(#paint0_radial_1172_7234)"/>
<rect width="120" height="120" rx="12" fill="url(#paint1_radial_1172_7234)" fill-opacity="0.9"/>
<path d="M28.8467 50.3826H48.7946C50.4033 50.3826 51.894 51.2266 52.7217 52.6061L56.4938 58.8929C57.3214 60.2723 58.8144 61.1163 60.4231 61.1163C71.848 61.1163 78.9986 61.1163 91.1025 61.1163" stroke="url(#paint2_linear_1172_7234)" stroke-opacity="0.81" stroke-width="9.15948" stroke-miterlimit="10" stroke-linecap="square"/>
<path d="M48.7949 27.4834C52.0121 27.4835 54.9931 29.172 56.6484 31.9307L60.4209 38.2178H86.5225C91.5811 38.2178 95.6826 42.3183 95.6826 47.377V82.5117C95.6826 85.1497 94.6339 87.6805 92.7686 89.5459C90.9032 91.411 88.3732 92.459 85.7354 92.459H34.2139C31.576 92.459 29.046 91.411 27.1807 89.5459C25.3153 87.6805 24.2666 85.1497 24.2666 82.5117V36.6436C24.2666 31.5849 28.3681 27.4834 33.4268 27.4834H48.7949Z" stroke="url(#paint3_linear_1172_7234)" stroke-width="9.15948" stroke-miterlimit="10" stroke-linecap="square"/>
<path d="M46.1661 63.9563C46.2114 63.9625 53.4766 76.5412 53.4766 76.5412C53.4766 76.5412 50.967 80.8769 50.897 80.9757L36.3583 80.9984L33.7891 76.5598L41.0728 63.9728L46.164 63.9563H46.1661Z" fill="white"/>
<defs>
<radialGradient id="paint0_radial_1172_7234" cx="0" cy="0" r="1" gradientUnits="userSpaceOnUse" gradientTransform="translate(60 60) rotate(90) scale(76.875)">
<stop offset="0.144231" stop-color="#141514"/>
<stop offset="1" stop-color="#44464A"/>
</radialGradient>
<radialGradient id="paint1_radial_1172_7234" cx="0" cy="0" r="1" gradientUnits="userSpaceOnUse" gradientTransform="translate(40.7813 72.8906) rotate(12.3492) scale(81.0951)">
<stop offset="0.177885" stop-color="#FF2200"/>
<stop offset="0.653846" stop-color="#ED7B58"/>
<stop offset="1" stop-color="#FFBD5B"/>
</radialGradient>
<linearGradient id="paint2_linear_1172_7234" x1="47.3946" y1="50.3826" x2="104.183" y2="89.5394" gradientUnits="userSpaceOnUse">
<stop stop-color="#ECECEC"/>
<stop offset="1" stop-color="white" stop-opacity="0"/>
</linearGradient>
<linearGradient id="paint3_linear_1172_7234" x1="59.9746" y1="32.0635" x2="59.9746" y2="87.8791" gradientUnits="userSpaceOnUse">
<stop stop-color="#F3F3F3"/>
<stop offset="1" stop-color="#CCCCCC"/>
</linearGradient>
</defs>
</svg>
