<svg width="14" height="15" viewBox="0 0 14 15" fill="none" xmlns="http://www.w3.org/2000/svg">
<path d="M3 3V0.75C3 0.551088 3.07902 0.360322 3.21967 0.21967C3.36032 0.0790176 3.55109 0 3.75 0H12.75C12.9489 0 13.1397 0.0790176 13.2803 0.21967C13.421 0.360322 13.5 0.551088 13.5 0.75V11.25C13.5 11.4489 13.421 11.6397 13.2803 11.7803C13.1397 11.921 12.9489 12 12.75 12H10.5V14.25C10.5 14.664 10.1625 15 9.74475 15H0.75525C0.656345 15.0006 0.558298 14.9816 0.466742 14.9442C0.375186 14.9068 0.291925 14.8517 0.221744 14.782C0.151563 14.7123 0.0958447 14.6294 0.0577907 14.5381C0.0197367 14.4468 9.70307e-05 14.3489 0 14.25L0.00225002 3.75C0.00225002 3.336 0.33975 3 0.7575 3H3ZM4.5 3H10.5V10.5H12V1.5H4.5V3ZM3 6.75V8.25H7.5V6.75H3ZM3 9.75V11.25H7.5V9.75H3Z" fill="#ED7B58"/>
</svg>
